<svg width="74" height="50" viewBox="0 0 74 50" fill="none" xmlns="http://www.w3.org/2000/svg">
<circle cx="36.5" cy="24.5" r="22.5" fill="url(#paint0_linear_1_257)"/>
<path d="M20.873 18.3516C20.873 18.8945 20.8027 19.4473 20.6621 20.0098C20.5254 20.5684 20.332 21.1094 20.082 21.6328C19.8359 22.1602 19.5391 22.6523 19.1914 23.1094C18.8438 23.5664 18.4609 23.9648 18.043 24.3047L17.1406 23.7598C17.375 23.4395 17.5801 23.0762 17.7559 22.6699C17.9316 22.2637 18.0781 21.8418 18.1953 21.4043C18.3125 20.9668 18.4004 20.5273 18.459 20.0859C18.5176 19.6445 18.5469 19.2246 18.5469 18.8262V12.5625H20.873V18.3516ZM29.4336 21H27.4531V20.1914C27.2188 20.5117 26.9355 20.75 26.6035 20.9062C26.2754 21.0586 25.9141 21.1348 25.5195 21.1348C25.0039 21.1348 24.543 21.043 24.1367 20.8594C23.7305 20.6758 23.3867 20.4258 23.1055 20.1094C22.8242 19.7891 22.6094 19.4141 22.4609 18.9844C22.3125 18.5547 22.2383 18.0938 22.2383 17.6016C22.2383 17.1094 22.3125 16.6484 22.4609 16.2188C22.6094 15.7891 22.8242 15.416 23.1055 15.0996C23.3867 14.7793 23.7305 14.5273 24.1367 14.3438C24.543 14.1602 25.0039 14.0684 25.5195 14.0684C25.7812 14.0684 26.0293 14.1074 26.2637 14.1855C26.502 14.2637 26.7188 14.375 26.9141 14.5195C27.1133 14.6602 27.2871 14.832 27.4355 15.0352C27.5879 15.2344 27.707 15.457 27.793 15.7031L28.6719 14.2324H29.4336V21ZM27.4414 17.6016C27.4414 17.4258 27.4316 17.2402 27.4121 17.0449C27.3965 16.8496 27.3672 16.6562 27.3242 16.4648C27.2812 16.2734 27.2207 16.0918 27.1426 15.9199C27.0684 15.7441 26.9707 15.5898 26.8496 15.457C26.7324 15.3203 26.5898 15.2129 26.4219 15.1348C26.2539 15.0566 26.0586 15.0176 25.8359 15.0176C25.6133 15.0176 25.4199 15.0586 25.2559 15.1406C25.0918 15.2188 24.9512 15.3262 24.834 15.4629C24.7168 15.5957 24.6191 15.75 24.541 15.9258C24.4668 16.1016 24.4082 16.2852 24.3652 16.4766C24.3223 16.668 24.291 16.8613 24.2715 17.0566C24.2559 17.248 24.248 17.4297 24.248 17.6016C24.248 17.7734 24.2559 17.957 24.2715 18.1523C24.291 18.3477 24.3223 18.541 24.3652 18.7324C24.4082 18.9238 24.4668 19.1074 24.541 19.2832C24.6191 19.459 24.7168 19.6152 24.834 19.752C24.9512 19.8848 25.0918 19.9922 25.2559 20.0742C25.4199 20.1523 25.6133 20.1914 25.8359 20.1914C26.0391 20.1914 26.2188 20.1504 26.375 20.0684C26.5352 19.9824 26.6738 19.8691 26.791 19.7285C26.9121 19.5879 27.0137 19.4277 27.0957 19.248C27.1777 19.0684 27.2441 18.8828 27.2949 18.6914C27.3457 18.5 27.3828 18.3105 27.4062 18.123C27.4297 17.9316 27.4414 17.7578 27.4414 17.6016ZM38.2871 17.6016C38.2871 18.0938 38.2129 18.5547 38.0645 18.9844C37.916 19.4141 37.7012 19.7891 37.4199 20.1094C37.1387 20.4258 36.7949 20.6758 36.3887 20.8594C35.9824 21.043 35.5215 21.1348 35.0059 21.1348C34.6113 21.1348 34.248 21.0586 33.916 20.9062C33.5879 20.75 33.3066 20.5117 33.0723 20.1914V24.123H31.0918V14.2324H31.8535L32.7324 15.7031C32.8184 15.457 32.9355 15.2344 33.084 15.0352C33.2363 14.832 33.4102 14.6602 33.6055 14.5195C33.8047 14.375 34.0215 14.2637 34.2559 14.1855C34.4941 14.1074 34.7441 14.0684 35.0059 14.0684C35.5215 14.0684 35.9824 14.1602 36.3887 14.3438C36.7949 14.5273 37.1387 14.7793 37.4199 15.0996C37.7012 15.416 37.916 15.7891 38.0645 16.2188C38.2129 16.6484 38.2871 17.1094 38.2871 17.6016ZM36.2773 17.6016C36.2773 17.4297 36.2676 17.248 36.248 17.0566C36.2324 16.8613 36.2031 16.668 36.1602 16.4766C36.1172 16.2852 36.0566 16.1016 35.9785 15.9258C35.9043 15.75 35.8086 15.5957 35.6914 15.4629C35.5742 15.3262 35.4316 15.2188 35.2637 15.1406C35.0996 15.0586 34.9082 15.0176 34.6895 15.0176C34.4629 15.0176 34.2656 15.0566 34.0977 15.1348C33.9336 15.2129 33.791 15.3203 33.6699 15.457C33.5527 15.5898 33.4551 15.7441 33.377 15.9199C33.3027 16.0918 33.2441 16.2734 33.2012 16.4648C33.1582 16.6562 33.127 16.8496 33.1074 17.0449C33.0918 17.2402 33.084 17.4258 33.084 17.6016C33.084 17.7578 33.0957 17.9316 33.1191 18.123C33.1426 18.3105 33.1797 18.5 33.2305 18.6914C33.2812 18.8828 33.3477 19.0684 33.4297 19.248C33.5117 19.4277 33.6113 19.5879 33.7285 19.7285C33.8496 19.8691 33.9883 19.9824 34.1445 20.0684C34.3047 20.1504 34.4863 20.1914 34.6895 20.1914C34.9121 20.1914 35.1055 20.1523 35.2695 20.0742C35.4336 19.9922 35.5742 19.8848 35.6914 19.752C35.8086 19.6152 35.9043 19.459 35.9785 19.2832C36.0566 19.1074 36.1172 18.9238 36.1602 18.7324C36.2031 18.541 36.2324 18.3477 36.248 18.1523C36.2676 17.957 36.2773 17.7734 36.2773 17.6016ZM46.3789 21H44.3984V20.1914C44.1641 20.5117 43.8809 20.75 43.5488 20.9062C43.2207 21.0586 42.8594 21.1348 42.4648 21.1348C41.9492 21.1348 41.4883 21.043 41.082 20.8594C40.6758 20.6758 40.332 20.4258 40.0508 20.1094C39.7695 19.7891 39.5547 19.4141 39.4062 18.9844C39.2578 18.5547 39.1836 18.0938 39.1836 17.6016C39.1836 17.1094 39.2578 16.6484 39.4062 16.2188C39.5547 15.7891 39.7695 15.416 40.0508 15.0996C40.332 14.7793 40.6758 14.5273 41.082 14.3438C41.4883 14.1602 41.9492 14.0684 42.4648 14.0684C42.7266 14.0684 42.9746 14.1074 43.209 14.1855C43.4473 14.2637 43.6641 14.375 43.8594 14.5195C44.0586 14.6602 44.2324 14.832 44.3809 15.0352C44.5332 15.2344 44.6523 15.457 44.7383 15.7031L45.6172 14.2324H46.3789V21ZM44.3867 17.6016C44.3867 17.4258 44.377 17.2402 44.3574 17.0449C44.3418 16.8496 44.3125 16.6562 44.2695 16.4648C44.2266 16.2734 44.166 16.0918 44.0879 15.9199C44.0137 15.7441 43.916 15.5898 43.7949 15.457C43.6777 15.3203 43.5352 15.2129 43.3672 15.1348C43.1992 15.0566 43.0039 15.0176 42.7812 15.0176C42.5586 15.0176 42.3652 15.0586 42.2012 15.1406C42.0371 15.2188 41.8965 15.3262 41.7793 15.4629C41.6621 15.5957 41.5645 15.75 41.4863 15.9258C41.4121 16.1016 41.3535 16.2852 41.3105 16.4766C41.2676 16.668 41.2363 16.8613 41.2168 17.0566C41.2012 17.248 41.1934 17.4297 41.1934 17.6016C41.1934 17.7734 41.2012 17.957 41.2168 18.1523C41.2363 18.3477 41.2676 18.541 41.3105 18.7324C41.3535 18.9238 41.4121 19.1074 41.4863 19.2832C41.5645 19.459 41.6621 19.6152 41.7793 19.752C41.8965 19.8848 42.0371 19.9922 42.2012 20.0742C42.3652 20.1523 42.5586 20.1914 42.7812 20.1914C42.9844 20.1914 43.1641 20.1504 43.3203 20.0684C43.4805 19.9824 43.6191 19.8691 43.7363 19.7285C43.8574 19.5879 43.959 19.4277 44.041 19.248C44.123 19.0684 44.1895 18.8828 44.2402 18.6914C44.291 18.5 44.3281 18.3105 44.3516 18.123C44.375 17.9316 44.3867 17.7578 44.3867 17.6016ZM54.957 17.1211C54.957 17.5781 54.9004 18.0547 54.7871 18.5508C54.6777 19.0469 54.5234 19.5332 54.3242 20.0098C54.125 20.4863 53.8867 20.9336 53.6094 21.3516C53.332 21.7734 53.0273 22.1367 52.6953 22.4414L51.9512 22.0371C52.0566 21.8418 52.1562 21.623 52.25 21.3809C52.3438 21.1387 52.4277 20.8828 52.502 20.6133C52.5801 20.3398 52.6484 20.0586 52.707 19.7695C52.7695 19.4805 52.8203 19.1953 52.8594 18.9141C52.9023 18.6289 52.9336 18.3535 52.9531 18.0879C52.9766 17.8184 52.9883 17.5684 52.9883 17.3379C52.9883 17.1855 52.9824 17.0234 52.9707 16.8516C52.959 16.6758 52.9336 16.502 52.8945 16.3301C52.8594 16.1543 52.8105 15.9863 52.748 15.8262C52.6855 15.666 52.6016 15.5254 52.4961 15.4043C52.3945 15.2832 52.2695 15.1855 52.1211 15.1113C51.9766 15.0371 51.8047 15 51.6055 15C51.4102 15 51.2363 15.0449 51.084 15.1348C50.9316 15.2207 50.7969 15.3359 50.6797 15.4805C50.5625 15.6211 50.4609 15.7832 50.375 15.9668C50.293 16.1504 50.2246 16.3398 50.1699 16.5352C50.1191 16.7266 50.082 16.916 50.0586 17.1035C50.0352 17.291 50.0234 17.459 50.0234 17.6074V21H48.0371V14.2324H48.7988L49.707 15.8086C49.8164 15.5469 49.9531 15.3086 50.1172 15.0938C50.2812 14.8789 50.4668 14.6953 50.6738 14.543C50.8809 14.3906 51.1094 14.2734 51.3594 14.1914C51.6133 14.1094 51.8867 14.0684 52.1797 14.0684C52.6484 14.0684 53.0566 14.1445 53.4043 14.2969C53.752 14.4492 54.041 14.6621 54.2715 14.9355C54.502 15.2051 54.6738 15.5273 54.7871 15.9023C54.9004 16.2734 54.957 16.6797 54.957 17.1211ZM28.3379 32.4219C28.3379 32.7852 28.291 33.1055 28.1973 33.3828C28.1074 33.6602 27.9785 33.9004 27.8105 34.1035C27.6465 34.3066 27.4512 34.4766 27.2246 34.6133C26.998 34.75 26.75 34.8594 26.4805 34.9414C26.2148 35.0234 25.9316 35.082 25.6309 35.1172C25.334 35.1523 25.0312 35.1699 24.7227 35.1699C24.3164 35.1699 23.9414 35.1387 23.5977 35.0762C23.2539 35.0176 22.9297 34.9238 22.625 34.7949C22.3242 34.6621 22.0332 34.4922 21.752 34.2852C21.4746 34.0781 21.1973 33.8262 20.9199 33.5293L22.1152 32.3164C22.2246 32.5859 22.375 32.8359 22.5664 33.0664C22.7578 33.293 22.9668 33.4883 23.1934 33.6523C23.4238 33.8164 23.6621 33.9453 23.9082 34.0391C24.1543 34.1328 24.3867 34.1797 24.6055 34.1797C24.8633 34.1797 25.1055 34.1621 25.332 34.127C25.5586 34.0879 25.7559 34.0254 25.9238 33.9395C26.0918 33.8535 26.2227 33.7402 26.3164 33.5996C26.4141 33.4551 26.4629 33.2754 26.4629 33.0605C26.4629 32.8965 26.4258 32.7559 26.3516 32.6387C26.2773 32.5215 26.1797 32.4219 26.0586 32.3398C25.9414 32.2539 25.8066 32.1816 25.6543 32.123C25.502 32.0645 25.3457 32.0156 25.1855 31.9766C25.0293 31.9336 24.875 31.8965 24.7227 31.8652C24.5703 31.8301 24.4355 31.7949 24.3184 31.7598C24.0879 31.6934 23.8477 31.623 23.5977 31.5488C23.3477 31.4707 23.1016 31.3828 22.8594 31.2852C22.6172 31.1875 22.3867 31.0762 22.168 30.9512C21.9531 30.8223 21.7637 30.6719 21.5996 30.5C21.4355 30.3242 21.3047 30.123 21.207 29.8965C21.1094 29.666 21.0605 29.4023 21.0605 29.1055C21.0605 28.75 21.1035 28.4355 21.1895 28.1621C21.2793 27.8848 21.4043 27.6445 21.5645 27.4414C21.7246 27.2383 21.9141 27.0684 22.1328 26.9316C22.3516 26.791 22.5918 26.6797 22.8535 26.5977C23.1152 26.5117 23.3926 26.4512 23.6855 26.416C23.9824 26.377 24.2852 26.3574 24.5938 26.3574C25.0156 26.3574 25.3984 26.3965 25.7422 26.4746C26.0898 26.5527 26.4102 26.6641 26.7031 26.8086C26.9961 26.9531 27.2637 27.127 27.5059 27.3301C27.752 27.5293 27.9824 27.752 28.1973 27.998L27.002 29.2109C26.9082 28.9297 26.7773 28.6758 26.6094 28.4492C26.4453 28.2227 26.2617 28.0293 26.0586 27.8691C25.8555 27.7051 25.6426 27.5801 25.4199 27.4941C25.1973 27.4043 24.9824 27.3594 24.7754 27.3594C24.5059 27.3594 24.2578 27.3789 24.0312 27.418C23.8047 27.4531 23.6094 27.5137 23.4453 27.5996C23.2852 27.6816 23.1602 27.7949 23.0703 27.9395C22.9805 28.0801 22.9355 28.2559 22.9355 28.4668C22.9355 28.6348 22.9688 28.7773 23.0352 28.8945C23.1016 29.0117 23.1895 29.1113 23.2988 29.1934C23.4121 29.2754 23.5391 29.3438 23.6797 29.3984C23.8203 29.4492 23.9648 29.4941 24.1133 29.5332C24.2656 29.5723 24.4141 29.6074 24.5586 29.6387C24.707 29.666 24.8418 29.6973 24.9629 29.7324C25.1973 29.7988 25.4434 29.8691 25.7012 29.9434C25.959 30.0176 26.2129 30.1055 26.4629 30.207C26.7129 30.3047 26.9512 30.418 27.1777 30.5469C27.4043 30.6758 27.6035 30.8301 27.7754 31.0098C27.9473 31.1855 28.084 31.3906 28.1855 31.625C28.2871 31.8555 28.3379 32.1211 28.3379 32.4219ZM32.1172 35H30.1309V29.0176H28.9004V28.2324H30.1309V25.7422H32.1172V28.2324H34.168V29.0176H32.1172V35ZM41.1465 28.2324L38.6855 34.1855C38.4043 34.8652 38.0898 35.5371 37.7422 36.2012C37.3984 36.8691 37.0254 37.5098 36.623 38.123L35.8496 37.6543C35.9473 37.4785 36.0625 37.2754 36.1953 37.0449C36.3281 36.8145 36.459 36.5762 36.5879 36.3301C36.7168 36.084 36.8359 35.8398 36.9453 35.5977C37.0547 35.3594 37.1387 35.1406 37.1973 34.9414L34.2383 28.2324H36.2188L38.2285 32.8086L39.7754 28.2324H41.1465ZM43.959 35H41.9785V25.1152H42.7402L43.959 27.1719V35ZM47.2402 31.7891C47.4824 31.8438 47.7246 31.8867 47.9668 31.918C48.209 31.9492 48.4531 31.9648 48.6992 31.9648C48.957 31.9648 49.1953 31.9414 49.4141 31.8945C49.6367 31.8438 49.8281 31.7617 49.9883 31.6484C50.1523 31.5312 50.2812 31.377 50.375 31.1855C50.4688 30.9941 50.5156 30.7559 50.5156 30.4707C50.5156 30.2402 50.4844 30.0293 50.4219 29.8379C50.3594 29.6465 50.2656 29.4824 50.1406 29.3457C50.0195 29.209 49.8691 29.1035 49.6895 29.0293C49.5098 28.9512 49.3008 28.9121 49.0625 28.9121C48.8398 28.9121 48.6387 28.9531 48.459 29.0352C48.2832 29.1172 48.127 29.2285 47.9902 29.3691C47.8574 29.5059 47.7422 29.666 47.6445 29.8496C47.5508 30.0332 47.4727 30.2246 47.4102 30.4238C47.3477 30.623 47.3027 30.8242 47.2754 31.0273C47.248 31.2305 47.2344 31.4219 47.2344 31.6016C47.2344 31.6328 47.2344 31.6641 47.2344 31.6953C47.2344 31.7266 47.2363 31.7578 47.2402 31.7891ZM52.1211 30.4531C52.1211 30.7305 52.0762 30.9785 51.9863 31.1973C51.8965 31.4121 51.7734 31.6016 51.6172 31.7656C51.4648 31.9297 51.2871 32.0684 51.084 32.1816C50.8809 32.2949 50.6641 32.3887 50.4336 32.4629C50.2031 32.5332 49.9648 32.584 49.7188 32.6152C49.4766 32.6465 49.2402 32.6621 49.0098 32.6621C48.7168 32.6621 48.4277 32.6426 48.1426 32.6035C47.8574 32.5605 47.5762 32.4941 47.2988 32.4043C47.3418 32.6621 47.4102 32.9082 47.5039 33.1426C47.5977 33.373 47.7227 33.5762 47.8789 33.752C48.0352 33.9238 48.2266 34.0605 48.4531 34.1621C48.6836 34.2637 48.9551 34.3145 49.2676 34.3145C49.4746 34.3145 49.6719 34.2832 49.8594 34.2207C50.0469 34.1582 50.2188 34.0703 50.375 33.957C50.5312 33.8438 50.668 33.709 50.7852 33.5527C50.9062 33.3965 51.0039 33.2227 51.0781 33.0312L51.9336 33.3477C51.8047 33.6562 51.627 33.9238 51.4004 34.1504C51.1777 34.373 50.9238 34.5586 50.6387 34.707C50.3574 34.8516 50.0566 34.959 49.7363 35.0293C49.4199 35.0996 49.1055 35.1348 48.793 35.1348C48.2773 35.1348 47.8008 35.0488 47.3633 34.877C46.9258 34.7012 46.5488 34.457 46.2324 34.1445C45.916 33.832 45.668 33.459 45.4883 33.0254C45.3086 32.5918 45.2188 32.1172 45.2188 31.6016C45.2188 31.0859 45.3086 30.6113 45.4883 30.1777C45.668 29.7441 45.916 29.3711 46.2324 29.0586C46.5488 28.7461 46.9258 28.5039 47.3633 28.332C47.8008 28.1562 48.2773 28.0684 48.793 28.0684C49.043 28.0684 49.2988 28.0859 49.5605 28.1211C49.8223 28.1562 50.0762 28.2129 50.3223 28.291C50.5684 28.3652 50.8008 28.4629 51.0195 28.584C51.2383 28.7051 51.4277 28.8555 51.5879 29.0352C51.752 29.2109 51.8809 29.416 51.9746 29.6504C52.0723 29.8848 52.1211 30.1523 52.1211 30.4531Z" fill="#F8F8F8"/>
<defs>
<linearGradient id="paint0_linear_1_257" x1="36.5" y1="2" x2="36.5" y2="47" gradientUnits="userSpaceOnUse">
<stop offset="0.455" stop-color="#FF0E0E"/>
<stop offset="1" stop-color="#990808"/>
</linearGradient>
</defs>
</svg>
