<svg width="90" height="90" viewBox="0 0 90 90" fill="none" xmlns="http://www.w3.org/2000/svg">
<circle cx="44.5" cy="45.5" r="42.5" fill="url(#paint0_linear_40_1036)"/>
<path d="M14.5483 32.9238C14.5483 33.9645 14.4136 35.0239 14.144 36.1021C13.882 37.1727 13.5114 38.2096 13.0322 39.2129C12.5605 40.2236 11.9915 41.167 11.3252 42.043C10.6589 42.9189 9.92513 43.6826 9.12402 44.334L7.39453 43.2896C7.84375 42.6756 8.23682 41.9793 8.57373 41.2007C8.91064 40.422 9.19141 39.6134 9.41602 38.7749C9.64062 37.9364 9.80908 37.0941 9.92139 36.248C10.0337 35.402 10.0898 34.5972 10.0898 33.8335V21.8281H14.5483V32.9238ZM30.9561 38H27.1602V36.4502C26.7109 37.0641 26.1681 37.5208 25.5317 37.8203C24.9028 38.1123 24.2103 38.2583 23.4541 38.2583C22.4658 38.2583 21.5824 38.0824 20.8037 37.7305C20.0251 37.3786 19.3662 36.8994 18.8271 36.293C18.2881 35.679 17.8763 34.9603 17.5918 34.1367C17.3073 33.3132 17.165 32.4297 17.165 31.4863C17.165 30.543 17.3073 29.6595 17.5918 28.8359C17.8763 28.0124 18.2881 27.2974 18.8271 26.6909C19.3662 26.077 20.0251 25.5941 20.8037 25.2422C21.5824 24.8903 22.4658 24.7144 23.4541 24.7144C23.9557 24.7144 24.4312 24.7892 24.8804 24.939C25.3371 25.0887 25.7526 25.3021 26.127 25.5791C26.5088 25.8486 26.842 26.1781 27.1265 26.5674C27.4185 26.9492 27.6468 27.376 27.8115 27.8477L29.4961 25.0288H30.9561V38ZM27.1377 31.4863C27.1377 31.1494 27.119 30.7938 27.0815 30.4194C27.0516 30.0451 26.9954 29.6745 26.9131 29.3076C26.8307 28.9408 26.7147 28.5926 26.5649 28.2632C26.4227 27.9263 26.2355 27.6305 26.0034 27.376C25.7788 27.1139 25.5055 26.908 25.1836 26.7583C24.8617 26.6086 24.4873 26.5337 24.0605 26.5337C23.6338 26.5337 23.2632 26.6123 22.9487 26.7695C22.6343 26.9193 22.3647 27.1252 22.1401 27.3872C21.9155 27.6418 21.7284 27.9375 21.5786 28.2744C21.4364 28.6113 21.3241 28.9632 21.2417 29.3301C21.1593 29.6969 21.0994 30.0675 21.062 30.4419C21.0321 30.8088 21.0171 31.1569 21.0171 31.4863C21.0171 31.8158 21.0321 32.1676 21.062 32.542C21.0994 32.9163 21.1593 33.2869 21.2417 33.6538C21.3241 34.0207 21.4364 34.3726 21.5786 34.7095C21.7284 35.0464 21.9155 35.3459 22.1401 35.6079C22.3647 35.8625 22.6343 36.0684 22.9487 36.2256C23.2632 36.3753 23.6338 36.4502 24.0605 36.4502C24.4499 36.4502 24.7943 36.3716 25.0938 36.2144C25.4007 36.0496 25.6665 35.8325 25.8911 35.563C26.1232 35.2935 26.3179 34.9865 26.4751 34.6421C26.6323 34.2977 26.7596 33.9421 26.8569 33.5752C26.9543 33.2083 27.0254 32.8452 27.0703 32.4858C27.1152 32.119 27.1377 31.7858 27.1377 31.4863ZM47.9253 31.4863C47.9253 32.4297 47.783 33.3132 47.4985 34.1367C47.214 34.9603 46.8022 35.679 46.2632 36.293C45.7241 36.8994 45.0653 37.3786 44.2866 37.7305C43.508 38.0824 42.6245 38.2583 41.6362 38.2583C40.88 38.2583 40.1838 38.1123 39.5474 37.8203C38.9185 37.5208 38.3794 37.0641 37.9302 36.4502V43.9858H34.1343V25.0288H35.5942L37.2788 27.8477C37.4435 27.376 37.6681 26.9492 37.9526 26.5674C38.2446 26.1781 38.5778 25.8486 38.9521 25.5791C39.334 25.3021 39.7495 25.0887 40.1987 24.939C40.6554 24.7892 41.1346 24.7144 41.6362 24.7144C42.6245 24.7144 43.508 24.8903 44.2866 25.2422C45.0653 25.5941 45.7241 26.077 46.2632 26.6909C46.8022 27.2974 47.214 28.0124 47.4985 28.8359C47.783 29.6595 47.9253 30.543 47.9253 31.4863ZM44.0732 31.4863C44.0732 31.1569 44.0545 30.8088 44.0171 30.4419C43.9871 30.0675 43.931 29.6969 43.8486 29.3301C43.7663 28.9632 43.6502 28.6113 43.5005 28.2744C43.3582 27.9375 43.1748 27.6418 42.9502 27.3872C42.7256 27.1252 42.4523 26.9193 42.1304 26.7695C41.8159 26.6123 41.4491 26.5337 41.0298 26.5337C40.5955 26.5337 40.2174 26.6086 39.8955 26.7583C39.5811 26.908 39.3078 27.1139 39.0757 27.376C38.8511 27.6305 38.6639 27.9263 38.5142 28.2632C38.3719 28.5926 38.2596 28.9408 38.1772 29.3076C38.0949 29.6745 38.035 30.0451 37.9976 30.4194C37.9676 30.7938 37.9526 31.1494 37.9526 31.4863C37.9526 31.7858 37.9751 32.119 38.02 32.4858C38.0649 32.8452 38.1361 33.2083 38.2334 33.5752C38.3307 33.9421 38.458 34.2977 38.6152 34.6421C38.7725 34.9865 38.9634 35.2935 39.188 35.563C39.4201 35.8325 39.6859 36.0496 39.9854 36.2144C40.2923 36.3716 40.6405 36.4502 41.0298 36.4502C41.4565 36.4502 41.8271 36.3753 42.1416 36.2256C42.4561 36.0684 42.7256 35.8625 42.9502 35.6079C43.1748 35.3459 43.3582 35.0464 43.5005 34.7095C43.6502 34.3726 43.7663 34.0207 43.8486 33.6538C43.931 33.2869 43.9871 32.9163 44.0171 32.542C44.0545 32.1676 44.0732 31.8158 44.0732 31.4863ZM63.4346 38H59.6387V36.4502C59.1895 37.0641 58.6466 37.5208 58.0103 37.8203C57.3813 38.1123 56.6888 38.2583 55.9326 38.2583C54.9443 38.2583 54.0609 38.0824 53.2822 37.7305C52.5036 37.3786 51.8447 36.8994 51.3057 36.293C50.7666 35.679 50.3548 34.9603 50.0703 34.1367C49.7858 33.3132 49.6436 32.4297 49.6436 31.4863C49.6436 30.543 49.7858 29.6595 50.0703 28.8359C50.3548 28.0124 50.7666 27.2974 51.3057 26.6909C51.8447 26.077 52.5036 25.5941 53.2822 25.2422C54.0609 24.8903 54.9443 24.7144 55.9326 24.7144C56.4342 24.7144 56.9097 24.7892 57.3589 24.939C57.8156 25.0887 58.2311 25.3021 58.6055 25.5791C58.9873 25.8486 59.3205 26.1781 59.605 26.5674C59.897 26.9492 60.1253 27.376 60.29 27.8477L61.9746 25.0288H63.4346V38ZM59.6162 31.4863C59.6162 31.1494 59.5975 30.7938 59.5601 30.4194C59.5301 30.0451 59.474 29.6745 59.3916 29.3076C59.3092 28.9408 59.1932 28.5926 59.0435 28.2632C58.9012 27.9263 58.714 27.6305 58.4819 27.376C58.2573 27.1139 57.984 26.908 57.6621 26.7583C57.3402 26.6086 56.9658 26.5337 56.5391 26.5337C56.1123 26.5337 55.7417 26.6123 55.4272 26.7695C55.1128 26.9193 54.8433 27.1252 54.6187 27.3872C54.394 27.6418 54.2069 27.9375 54.0571 28.2744C53.9149 28.6113 53.8026 28.9632 53.7202 29.3301C53.6379 29.6969 53.578 30.0675 53.5405 30.4419C53.5106 30.8088 53.4956 31.1569 53.4956 31.4863C53.4956 31.8158 53.5106 32.1676 53.5405 32.542C53.578 32.9163 53.6379 33.2869 53.7202 33.6538C53.8026 34.0207 53.9149 34.3726 54.0571 34.7095C54.2069 35.0464 54.394 35.3459 54.6187 35.6079C54.8433 35.8625 55.1128 36.0684 55.4272 36.2256C55.7417 36.3753 56.1123 36.4502 56.5391 36.4502C56.9284 36.4502 57.2728 36.3716 57.5723 36.2144C57.8792 36.0496 58.145 35.8325 58.3696 35.563C58.6017 35.2935 58.7964 34.9865 58.9536 34.6421C59.1108 34.2977 59.2381 33.9421 59.3354 33.5752C59.4328 33.2083 59.5039 32.8452 59.5488 32.4858C59.5938 32.119 59.6162 31.7858 59.6162 31.4863ZM79.876 30.5654C79.876 31.4414 79.7674 32.3548 79.5503 33.3057C79.3407 34.2565 79.0449 35.1886 78.6631 36.1021C78.2812 37.0155 77.8245 37.8727 77.293 38.6738C76.7614 39.4824 76.1774 40.1787 75.541 40.7627L74.1147 39.9878C74.3169 39.6134 74.5078 39.1942 74.6875 38.73C74.8672 38.2658 75.0282 37.7754 75.1704 37.2588C75.3201 36.7347 75.4512 36.1956 75.5635 35.6416C75.6833 35.0876 75.7806 34.541 75.8555 34.002C75.9378 33.4554 75.9977 32.9276 76.0352 32.4185C76.0801 31.9019 76.1025 31.4227 76.1025 30.981C76.1025 30.689 76.0913 30.3783 76.0688 30.0488C76.0464 29.7119 75.9977 29.3787 75.9229 29.0493C75.8555 28.7124 75.7619 28.3905 75.6421 28.0835C75.5223 27.7765 75.3613 27.507 75.1592 27.2749C74.9645 27.0428 74.7249 26.8556 74.4404 26.7134C74.1634 26.5711 73.834 26.5 73.4521 26.5C73.0778 26.5 72.7446 26.5861 72.4526 26.7583C72.1606 26.923 71.9023 27.1439 71.6777 27.4209C71.4531 27.6904 71.2585 28.0011 71.0938 28.353C70.9365 28.7049 70.8055 29.068 70.7007 29.4424C70.6034 29.8092 70.5322 30.1724 70.4873 30.5317C70.4424 30.8911 70.4199 31.2131 70.4199 31.4976V38H66.6128V25.0288H68.0728L69.8135 28.0498C70.0231 27.5482 70.2852 27.0915 70.5996 26.6797C70.9141 26.2679 71.2697 25.916 71.6665 25.624C72.0633 25.332 72.5013 25.1074 72.9805 24.9502C73.4671 24.793 73.9912 24.7144 74.5527 24.7144C75.4512 24.7144 76.2336 24.8604 76.8999 25.1523C77.5662 25.4443 78.1203 25.8524 78.562 26.3765C79.0037 26.8931 79.3332 27.5107 79.5503 28.2295C79.7674 28.9408 79.876 29.7194 79.876 30.5654ZM28.856 59.0586C28.856 59.7549 28.7661 60.3688 28.5864 60.9004C28.4142 61.432 28.1672 61.8924 27.8452 62.2817C27.5308 62.6711 27.1564 62.9967 26.7222 63.2588C26.2879 63.5208 25.8125 63.7305 25.2959 63.8877C24.7868 64.0449 24.244 64.1572 23.6675 64.2246C23.0985 64.292 22.5182 64.3257 21.9268 64.3257C21.1481 64.3257 20.4294 64.2658 19.7705 64.146C19.1117 64.0337 18.4902 63.854 17.9062 63.6069C17.3298 63.3524 16.772 63.0267 16.2329 62.6299C15.7013 62.2331 15.1698 61.7502 14.6382 61.1812L16.9292 58.8564C17.1388 59.373 17.4271 59.8522 17.7939 60.2939C18.1608 60.7282 18.5614 61.1025 18.9956 61.417C19.4373 61.7314 19.894 61.9785 20.3657 62.1582C20.8374 62.3379 21.2829 62.4277 21.7021 62.4277C22.1963 62.4277 22.6605 62.394 23.0947 62.3267C23.529 62.2518 23.9071 62.132 24.229 61.9673C24.5509 61.8026 24.8018 61.5854 24.9814 61.3159C25.1686 61.0389 25.2622 60.6945 25.2622 60.2827C25.2622 59.9683 25.1911 59.6987 25.0488 59.4741C24.9066 59.2495 24.7194 59.0586 24.4873 58.9014C24.2627 58.7367 24.0044 58.5981 23.7124 58.4858C23.4204 58.3735 23.1209 58.2799 22.814 58.2051C22.5145 58.1227 22.2188 58.0516 21.9268 57.9917C21.6348 57.9243 21.3765 57.8569 21.1519 57.7896C20.7101 57.6623 20.2497 57.5275 19.7705 57.3853C19.2913 57.2355 18.8197 57.0671 18.3555 56.8799C17.8913 56.6927 17.4495 56.4793 17.0303 56.2397C16.6185 55.9927 16.2554 55.7044 15.9409 55.375C15.6265 55.0381 15.3757 54.6525 15.1885 54.2183C15.0013 53.7765 14.9077 53.2712 14.9077 52.7021C14.9077 52.0208 14.9901 51.4181 15.1548 50.894C15.327 50.3625 15.5666 49.902 15.8735 49.5127C16.1805 49.1234 16.5436 48.7977 16.9629 48.5356C17.3822 48.2661 17.8426 48.0527 18.3442 47.8955C18.8459 47.7308 19.3774 47.6147 19.939 47.5474C20.508 47.4725 21.0882 47.4351 21.6797 47.4351C22.4883 47.4351 23.222 47.5099 23.8809 47.6597C24.5472 47.8094 25.1611 48.0228 25.7227 48.2998C26.2842 48.5768 26.797 48.91 27.2612 49.2993C27.7329 49.6812 28.1746 50.1079 28.5864 50.5796L26.2954 52.9043C26.1157 52.3652 25.8649 51.8786 25.543 51.4443C25.2285 51.0101 24.8766 50.6395 24.4873 50.3325C24.098 50.0181 23.6899 49.7785 23.2632 49.6138C22.8364 49.4416 22.4246 49.3555 22.0278 49.3555C21.5112 49.3555 21.0358 49.3929 20.6016 49.4678C20.1673 49.5352 19.793 49.6512 19.4785 49.8159C19.1715 49.9731 18.932 50.1903 18.7598 50.4673C18.5876 50.7368 18.5015 51.0737 18.5015 51.478C18.5015 51.8 18.5651 52.0732 18.6924 52.2979C18.8197 52.5225 18.9881 52.7134 19.1978 52.8706C19.4149 53.0278 19.6582 53.1589 19.9277 53.2637C20.1973 53.361 20.4743 53.4471 20.7588 53.522C21.0508 53.5968 21.3353 53.6642 21.6123 53.7241C21.8968 53.7765 22.1551 53.8364 22.3872 53.9038C22.8364 54.0311 23.3081 54.1659 23.8022 54.3081C24.2964 54.4504 24.783 54.6188 25.2622 54.8135C25.7414 55.0007 26.1981 55.2178 26.6323 55.4648C27.0666 55.7119 27.4484 56.0076 27.7778 56.3521C28.1073 56.689 28.3693 57.082 28.564 57.5312C28.7586 57.973 28.856 58.4821 28.856 59.0586ZM36.0996 64H32.2925V52.5337H29.9341V51.0288H32.2925V46.2559H36.0996V51.0288H40.0303V52.5337H36.0996V64ZM53.4058 51.0288L48.689 62.439C48.1499 63.7417 47.5472 65.0295 46.8809 66.3022C46.222 67.5825 45.507 68.8104 44.7358 69.9858L43.2534 69.0874C43.4406 68.7505 43.6615 68.3612 43.916 67.9194C44.1706 67.4777 44.4214 67.021 44.6685 66.5493C44.9155 66.0776 45.1439 65.6097 45.3535 65.1455C45.5632 64.6888 45.7241 64.2695 45.8364 63.8877L40.165 51.0288H43.9609L47.813 59.7998L50.7778 51.0288H53.4058ZM58.7964 64H55.0005V45.0542H56.4604L58.7964 48.9961V64ZM65.0854 57.8457C65.5496 57.9505 66.0138 58.0329 66.478 58.0928C66.9422 58.1527 67.4102 58.1826 67.8818 58.1826C68.376 58.1826 68.8327 58.1377 69.252 58.0479C69.6787 57.9505 70.0456 57.7933 70.3525 57.5762C70.667 57.3516 70.9141 57.0558 71.0938 56.689C71.2734 56.3221 71.3633 55.8654 71.3633 55.3188C71.3633 54.8771 71.3034 54.4728 71.1836 54.106C71.0638 53.7391 70.8841 53.4246 70.6445 53.1626C70.4124 52.9006 70.1242 52.6984 69.7798 52.5562C69.4354 52.4064 69.0348 52.3315 68.5781 52.3315C68.1514 52.3315 67.7658 52.4102 67.4214 52.5674C67.0845 52.7246 66.785 52.938 66.5229 53.2075C66.2684 53.4696 66.0475 53.7765 65.8604 54.1284C65.6807 54.4803 65.5309 54.8472 65.4111 55.229C65.2913 55.6108 65.2052 55.9964 65.1528 56.3857C65.1004 56.7751 65.0742 57.1419 65.0742 57.4863C65.0742 57.5462 65.0742 57.6061 65.0742 57.666C65.0742 57.7259 65.078 57.7858 65.0854 57.8457ZM74.4404 55.2852C74.4404 55.8167 74.3543 56.2922 74.1821 56.7114C74.0099 57.1232 73.7741 57.4863 73.4746 57.8008C73.1826 58.1152 72.842 58.381 72.4526 58.5981C72.0633 58.8153 71.6478 58.995 71.2061 59.1372C70.7643 59.272 70.3076 59.3693 69.8359 59.4292C69.3717 59.4891 68.9188 59.519 68.4771 59.519C67.9155 59.519 67.3615 59.4816 66.8149 59.4067C66.2684 59.3244 65.7293 59.1971 65.1978 59.0249C65.2801 59.519 65.4111 59.9907 65.5908 60.4399C65.7705 60.8817 66.0101 61.271 66.3096 61.6079C66.609 61.9373 66.9759 62.1994 67.4102 62.394C67.8519 62.5887 68.3722 62.686 68.9712 62.686C69.368 62.686 69.7461 62.6261 70.1055 62.5063C70.4648 62.3866 70.7943 62.2181 71.0938 62.001C71.3932 61.7839 71.6553 61.5256 71.8799 61.2261C72.112 60.9266 72.2992 60.5934 72.4414 60.2266L74.0811 60.833C73.834 61.4245 73.4933 61.9373 73.0591 62.3716C72.6323 62.7983 72.1457 63.154 71.5991 63.4385C71.0601 63.7155 70.4836 63.9214 69.8696 64.0562C69.2632 64.1909 68.6605 64.2583 68.0615 64.2583C67.0732 64.2583 66.1598 64.0936 65.3213 63.7642C64.4827 63.4272 63.7603 62.9593 63.1538 62.3604C62.5474 61.7614 62.0719 61.0464 61.7275 60.2153C61.3831 59.3843 61.2109 58.4746 61.2109 57.4863C61.2109 56.498 61.3831 55.5884 61.7275 54.7573C62.0719 53.9263 62.5474 53.2113 63.1538 52.6123C63.7603 52.0133 64.4827 51.5492 65.3213 51.2197C66.1598 50.8828 67.0732 50.7144 68.0615 50.7144C68.5407 50.7144 69.0311 50.748 69.5327 50.8154C70.0343 50.8828 70.521 50.9914 70.9927 51.1411C71.4644 51.2834 71.9098 51.4705 72.3291 51.7026C72.7484 51.9347 73.1115 52.223 73.4185 52.5674C73.7329 52.9043 73.98 53.2974 74.1597 53.7466C74.3468 54.1958 74.4404 54.7087 74.4404 55.2852Z" fill="#333232"/>
<defs>
<linearGradient id="paint0_linear_40_1036" x1="44.5" y1="3" x2="44.5" y2="88" gradientUnits="userSpaceOnUse">
<stop offset="0.455" stop-color="#FF0E0E"/>
<stop offset="1" stop-color="#990808"/>
</linearGradient>
</defs>
</svg>
