<svg width="34" height="34" viewBox="0 0 34 34" fill="none" xmlns="http://www.w3.org/2000/svg">
<g clip-path="url(#clip0_31_442)">
<path d="M23.375 14.875C23.375 18.4025 20.5275 21.25 17 21.25C13.4725 21.25 10.625 18.4025 10.625 14.875C10.625 11.3475 13.4725 8.5 17 8.5C20.5275 8.5 23.375 11.3475 23.375 14.875Z" fill="white"/>
<path fill-rule="evenodd" clip-rule="evenodd" d="M34 17C34 26.3925 26.3925 34 17 34C7.6075 34 0 26.3925 0 17C0 7.6075 7.6075 0 17 0C26.3925 0 34 7.6075 34 17ZM8.5 29.2188C8.84 28.6535 12.1337 23.375 16.9788 23.375C21.8025 23.375 25.1175 28.6663 25.4575 29.2188C27.4335 27.8523 29.048 26.0264 30.1621 23.898C31.2763 21.7696 31.8568 19.4024 31.8538 17C31.8538 8.77625 25.2025 2.125 16.9788 2.125C8.755 2.125 2.10375 8.77625 2.10375 17C2.10375 22.0575 4.6325 26.5413 8.5 29.2188Z" fill="white"/>
</g>
<defs>
<clipPath id="clip0_31_442">
<rect width="34" height="34" fill="white"/>
</clipPath>
</defs>
</svg>
