<svg width="54" height="54" viewBox="0 0 54 54" fill="none" xmlns="http://www.w3.org/2000/svg">
<rect width="54" height="54" rx="6" fill="#F8F8F8"/>
<path d="M27 3.375C22.4438 3.375 19.1363 3.429 17.145 3.53362C15.3694 3.60206 13.6106 3.9039 11.9137 4.43137C10.1873 5.04622 8.61923 6.03753 7.32332 7.33344C6.02741 8.62935 5.0361 10.1974 4.42125 11.9239C3.89378 13.6207 3.59194 15.3795 3.5235 17.1551C3.41888 19.1599 3.36487 22.4539 3.36487 27.0101C3.36487 31.5664 3.41888 34.8739 3.5235 36.8651C3.58763 38.637 3.888 40.4089 4.42125 42.0964C5.0355 43.821 6.02438 45.3904 7.32375 46.6864C8.60625 47.9756 10.179 48.9341 11.9137 49.4809C13.5911 50.0816 15.3563 50.4191 17.145 50.4799C19.1498 50.5845 22.4438 50.6385 27 50.6385C31.5563 50.6385 34.8638 50.5845 36.855 50.4799C38.6306 50.4114 40.3894 50.1096 42.0863 49.5821C43.8116 48.9652 45.3785 47.9731 46.6741 46.6775C47.9698 45.3819 48.9618 43.8149 49.5787 42.0896C50.1097 40.3931 50.409 38.6494 50.4765 36.8584C50.5811 34.8536 50.6351 31.5596 50.6351 27.0034C50.6351 22.4471 50.6014 19.1734 50.5305 17.1821C50.4362 15.394 50.1164 13.625 49.5787 11.9171C48.9643 10.191 47.9735 8.62317 46.6782 7.32728C45.3828 6.0314 43.8155 5.03989 42.0896 4.42462C40.3928 3.89715 38.634 3.59531 36.8584 3.52687C34.8491 3.42112 31.5641 3.36825 27.0034 3.36825L27 3.375ZM25.3125 46.575C22.5 46.575 20.3175 46.5401 18.765 46.4704C16.8352 46.4374 14.9179 46.1538 13.0612 45.6266C12.0341 45.2227 11.1012 44.6115 10.3208 43.8311C9.54035 43.0507 8.92913 42.1178 8.52525 41.0906C7.99808 39.234 7.71446 37.3166 7.6815 35.3869C7.61062 33.8411 7.57687 31.6744 7.57687 28.8394V25.4644C7.57687 22.6519 7.61175 20.4694 7.6815 18.9169C7.70175 16.9897 7.98525 15.0694 8.52525 13.2131C8.90662 12.174 9.50959 11.2303 10.2923 10.4476C11.075 9.66484 12.0187 9.06186 13.0579 8.6805C14.9145 8.15333 16.8319 7.8697 18.7616 7.83675C20.3074 7.76587 22.4741 7.73212 25.3091 7.73212H28.6841C31.4966 7.73212 33.6791 7.767 35.2316 7.83675C37.1588 7.857 39.0791 8.1405 40.9354 8.6805C41.9752 9.06145 42.9195 9.66424 43.7028 10.447C44.4862 11.2297 45.0896 12.1736 45.4714 13.2131C46.0114 15.066 46.2949 16.9931 46.3151 18.9169C46.3826 20.3951 46.4197 22.5619 46.4197 25.4644V28.8394C46.4197 31.6519 46.3849 33.8344 46.3151 35.3869C46.2822 37.3166 45.9985 39.234 45.4714 41.0906C45.0675 42.1178 44.4563 43.0507 43.6758 43.8311C42.8954 44.6115 41.9625 45.2227 40.9354 45.6266C39.0859 46.1666 37.1554 46.4501 35.2316 46.4704C33.7568 46.5379 31.5866 46.575 28.6841 46.575H25.3125ZM39.6562 11.475C39.0719 11.4712 38.4997 11.6418 38.0129 11.965C37.5261 12.2882 37.1468 12.7493 36.9235 13.2894C36.7003 13.8294 36.6432 14.4237 36.7597 14.9963C36.8761 15.569 37.1608 16.0938 37.5773 16.5037C37.9792 16.9231 38.499 17.2106 39.0679 17.3281C39.6368 17.4456 40.228 17.3876 40.7633 17.1619C41.1122 17.0097 41.4251 16.7854 41.6813 16.5037C42.2213 15.9367 42.5452 15.2044 42.6094 14.4247C42.5964 13.6456 42.281 12.902 41.73 12.351C41.179 11.8 40.4354 11.488 39.6562 11.475ZM27 15.255C24.9234 15.2418 22.8821 15.7923 21.0938 16.848C19.305 17.8841 17.8166 19.3725 16.7737 21.168C15.737 22.9637 15.1912 25.0007 15.1912 27.0742C15.1912 29.1478 15.737 31.1848 16.7737 32.9805C17.8145 34.7724 19.3059 36.2608 21.0999 37.2981C22.8938 38.3354 24.9278 38.8854 27 38.8935C30.1311 38.8819 33.1307 37.633 35.3447 35.4189C37.5587 33.2049 38.8077 30.2053 38.8193 27.0742C38.8193 25.0155 38.2691 22.9567 37.2262 21.168C36.19 19.3741 34.7002 17.8843 32.9063 16.848C31.1179 15.7923 29.0766 15.2418 27 15.255ZM27 34.6612C24.986 34.6612 23.0545 33.8612 21.6304 32.4371C20.2063 31.013 19.4063 29.0815 19.4063 27.0675C19.4063 25.0535 20.2063 23.122 21.6304 21.6979C23.0545 20.2738 24.986 19.4737 27 19.4737C29.014 19.4737 30.9455 20.2738 32.3696 21.6979C33.7937 23.122 34.5938 25.0535 34.5938 27.0675C34.5938 29.0815 33.7937 31.013 32.3696 32.4371C30.9455 33.8612 29.014 34.6612 27 34.6612Z" fill="black"/>
</svg>
