<svg width="54" height="54" viewBox="0 0 54 54" fill="none" xmlns="http://www.w3.org/2000/svg">
<rect width="54" height="54" rx="6" fill="#F8F8F8"/>
<g clip-path="url(#clip0_31_319)">
<path d="M39.5 11.05C37.7915 9.09882 36.8497 6.5935 36.85 4H29.125V35C29.0667 36.678 28.3588 38.2677 27.1508 39.4337C25.9427 40.5998 24.329 41.251 22.65 41.25C19.1 41.25 16.15 38.35 16.15 34.75C16.15 30.45 20.3 27.225 24.575 28.55V20.65C15.95 19.5 8.4 26.2 8.4 34.75C8.4 43.075 15.3 49 22.625 49C30.475 49 36.85 42.625 36.85 34.75V19.025C39.9825 21.2746 43.7434 22.4816 47.6 22.475V14.75C47.6 14.75 42.9 14.975 39.5 11.05Z" fill="black"/>
</g>
<defs>
<clipPath id="clip0_31_319">
<rect width="40" height="45" fill="white" transform="translate(8 4)"/>
</clipPath>
</defs>
</svg>
